<svg width="367" height="340" fill="none" xmlns="http://www.w3.org/2000/svg"><g clip-path="url(#clip0)"><path d="M261.442 221.873c4.06-15.63 3.654-24.562-1.624-28.216-2.029-1.421-4.059-1.624-6.292-1.624-2.233 0-4.872 0-8.729-1.624-2.436-.812-4.06-1.827-5.481-2.842-2.233-1.421-4.263-2.436-7.105-2.03-3.857.609-6.902 4.06-9.541 10.15l4.06 1.624c1.827-4.669 4.06-7.308 6.293-7.511 1.218-.203 2.03.203 4.06 1.421 1.624.812 3.451 2.03 6.293 3.045 4.669 1.624 7.917 1.827 10.15 1.827 2.03 0 3.045 0 3.857.812 1.827 1.421 4.465 6.293 0 23.75l4.059 1.218zm-161.38-15.427c.609-6.293 2.03-10.353 4.465-11.368 1.624-.812 3.451-.203 5.684.406 2.842.812 5.887 1.624 8.932-.406 2.233-1.421 2.639-3.451 3.045-4.872.406-1.218.609-2.436 1.624-3.654 1.827-2.233 5.481-3.654 8.729-3.857 2.639-.203 4.872.609 6.293 2.03 2.436 2.233 2.639 6.09 2.436 7.511l4.262.203c.203-2.639-.203-7.511-3.856-10.961-2.436-2.233-5.684-3.248-9.541-3.045-4.669.203-9.135 2.233-11.774 5.277-1.827 2.03-2.233 4.06-2.639 5.481-.406 1.421-.406 1.827-1.218 2.436-1.218.812-2.842.609-5.481-.203-2.639-.609-5.481-1.421-8.525 0-4.06 1.827-6.293 6.699-6.902 15.022h4.466z" fill="#263959"/><path d="M138.631 201.98c.406-4.669 1.015-9.135 1.421-13.804a11.257 11.257 0 014.668-2.03c2.842-.406 5.075.406 6.09.812.812 2.436 1.421 4.872 2.233 7.308l12.789-1.218c.406-4.872 1.015-9.743 1.421-14.818 1.827-1.421 9.947-6.902 21.111-5.481 12.586 1.421 19.488 10.15 20.706 11.773-.406 4.263-1.015 8.526-1.421 12.586 3.045.609 5.887 1.421 8.932 2.03l3.654-6.699c1.015-.203 3.654-1.015 6.698 0 3.045 1.015 4.872 3.045 5.481 3.857-.203 4.669-.406 9.338-.406 14.007-31.058-2.842-62.116-5.481-93.377-8.323z" fill="#263959"/><path d="M81.792 203.401c26.592-3.248 59.072-4.872 96.017-2.03 43.238 3.248 79.98 11.774 108.399 20.706 3.248 6.292 8.12 17.457 8.323 32.073.203 26.795-15.428 44.862-19.691 49.531a451.128 451.128 0 01-101.091 0c-40.396-4.466-74.296-13.601-100.077-22.736-3.045-6.293-8.12-19.284-7.308-36.133 1.015-21.517 11.165-36.133 15.428-41.411z" fill="#DFEBF5"/><path d="M207.04 292.719a182.51 182.51 0 01-54.2 1.624c-13.803-1.827-25.577-4.872-35.118-8.323-2.436-7.714-6.496-23.547-3.045-43.238 3.045-17.052 10.15-29.231 14.616-35.727 11.165-1.624 27.201-2.842 46.283 0 16.645 2.639 30.043 7.511 39.787 11.774l-8.323 73.89z" fill="#93B2C9"/><path d="M136.398 210.1c-3.857 4.669-7.714 10.759-10.759 18.675-9.744 24.766-2.436 47.704.609 55.824 7.511 2.842 16.036 5.278 25.78 7.308 22.127 4.263 41.208 3.045 55.215 1.015 4.06-5.684 10.962-16.849 13.398-32.479 3.044-19.488-2.436-34.713-5.075-41.208-10.962-3.654-25.172-7.105-41.817-8.729-14.616-1.624-27.202-1.421-37.351-.406z" fill="#2B2045"/><path d="M208.055 262.473c-1.015-14.007-2.842-25.375-6.699-25.781-4.466-.406-8.12 13.601-12.992 12.992-6.901-.609-6.495-30.855-12.382-31.464-5.684-.406-11.165 28.622-21.721 28.825-4.263 0-5.887-4.669-10.758-4.872-6.293 0-11.571 7.511-15.022 14.007 26.592 2.233 53.185 4.263 79.574 6.293z" fill="#CC35DB"/><path d="M208.055 262.473s-4.263 9.946-11.774 8.931c-7.714-1.015-5.278-10.352-11.773-6.293-6.496 4.06-16.443 23.548-20.909 20.706-4.466-2.842-2.842-11.774-6.293-10.15-3.451 1.624-6.496 8.323-9.541 4.872-3.044-3.451-2.841-16.848-7.104-16.848s-5.887 6.495-9.135 3.044c-3.045-3.45-2.842-10.555-2.842-10.555l79.371 6.293z" fill="#CC35DB"/><path d="M89.709 265.314c7.511 0 13.6-9.633 13.6-21.517s-6.089-21.517-13.6-21.517c-7.512 0-13.6 9.633-13.6 21.517s6.088 21.517 13.6 21.517zm160.569 20.909c10.875 0 19.69-10.633 19.69-23.75s-8.815-23.751-19.69-23.751c-10.875 0-19.691 10.634-19.691 23.751s8.816 23.75 19.691 23.75z" fill="#93B2C9"/><path d="M90.115 256.789c0 2.03 1.218 3.654 2.638 3.654 1.421 0 2.64-1.624 2.64-3.654s-1.219-3.654-2.64-3.654c-1.42 0-2.638 1.624-2.638 3.654zm2.638-19.894c1.458 0 2.64-1.636 2.64-3.654s-1.182-3.654-2.64-3.654c-1.457 0-2.638 1.636-2.638 3.654s1.181 3.654 2.638 3.654zm-8.119 13.601c0 2.03 1.218 3.654 2.639 3.654 1.42 0 2.639-1.624 2.639-3.654s-1.218-3.654-2.64-3.654c-1.623 0-2.638 1.624-2.638 3.654zm11.368 0c0 2.03 1.218 3.654 2.639 3.654 1.421 0 2.639-1.624 2.639-3.654s-1.218-3.654-2.64-3.654c-1.42 0-2.638 1.624-2.638 3.654zm-3.249-1.218c1.458 0 2.64-1.636 2.64-3.654s-1.182-3.654-2.64-3.654c-1.457 0-2.638 1.636-2.638 3.654s1.181 3.654 2.638 3.654zm-8.119-9.947c0 2.03 1.218 3.654 2.639 3.654 1.42 0 2.639-1.624 2.639-3.654s-1.218-3.654-2.64-3.654c-1.623 0-2.638 1.624-2.638 3.654zm11.368 0c0 2.03 1.218 3.654 2.639 3.654 1.421 0 2.639-1.624 2.639-3.654s-1.218-3.654-2.64-3.654c-1.42 0-2.638 1.624-2.638 3.654zm152.043 13.195c0 2.03 1.421 3.654 3.045 3.654 1.624 0 3.045-1.624 3.045-3.654s-1.421-3.654-3.045-3.654c-1.624-.203-3.045 1.421-3.045 3.654zm0 12.179c0 2.03 1.421 3.654 3.045 3.654 1.624 0 3.045-1.624 3.045-3.654s-1.421-3.653-3.045-3.653c-1.624 0-3.045 1.623-3.045 3.653zm-3.451-2.638c1.682 0 3.045-1.636 3.045-3.654s-1.363-3.654-3.045-3.654-3.045 1.636-3.045 3.654 1.363 3.654 3.045 3.654zm13.398 0c1.681 0 3.045-1.636 3.045-3.654s-1.364-3.654-3.045-3.654c-1.682 0-3.045 1.636-3.045 3.654s1.363 3.654 3.045 3.654z" fill="#617585"/></g><path d="M277.682 115.504c5.887 2.03 11.571 4.263 17.458 6.293.812 2.436 1.421 5.481 1.624 8.932.609 11.165-4.263 19.893-6.902 23.547-6.496 1.015-13.195 2.233-19.69 3.248-.609-4.263-.812-9.541-.203-15.428 1.015-11.367 4.668-20.502 7.713-26.592zm-176.605.203c-5.887 2.03-11.571 4.06-17.458 6.293-.812 2.436-1.42 5.481-1.624 8.932-.609 11.165 4.06 19.893 6.699 23.75 6.496 1.218 13.195 2.233 19.69 3.451.609-4.263.812-9.541.406-15.428-1.218-11.57-4.871-20.908-7.713-26.998z" fill="#93B2C9"/><path d="M204.401 52.576c-.812-2.64-3.045-7.308-7.917-10.556-7.511-5.075-18.675-4.466-27.81 1.827-1.624-5.481-4.669-13.398-10.556-21.518C148.577 8.73 133.759-2.03 130.917.406c-2.639 2.233 4.872 15.834 10.556 23.75a87.349 87.349 0 0023.344 22.533c-1.218 2.436-2.436 5.075-3.654 7.51 14.413-.405 28.825-1.014 43.238-1.623z" fill="#263959"/><path d="M274.637 163.817c-.812 2.233-1.624 4.06-2.233 5.481-18.269 6.902-49.53 16.239-89.114 14.818-32.683-1.218-58.666-9.337-75.515-16.036-.609-1.421-1.421-3.248-2.233-5.278-4.465-11.165-10.352-31.058-6.901-55.621 2.03-14.615 6.901-26.39 11.367-35.118a97.66 97.66 0 016.293-10.353c18.27-6.495 45.065-13.803 77.747-14.412 22.939-.406 42.629 2.233 57.854 5.684 2.436 2.436 5.481 5.886 8.729 10.352a102.744 102.744 0 0117.66 36.337c7.714 28.216 1.015 52.169-3.654 64.146z" fill="#DFEBF5"/><path d="M274.637 163.817c-19.284 0-38.569.203-57.853.203-5.684-12.383-12.586-32.276-14.007-57.448-.812-17.457 1.218-32.276 3.654-43.238 5.684-2.03 13.804-4.263 23.547-4.872 13.195-.609 23.954 2.03 30.653 4.263a102.744 102.744 0 0117.66 36.336c7.714 28.826 1.015 52.779-3.654 64.756z" fill="#2B2045"/><path d="M190.8 177.621c-8.322-1.218-13.803-6.293-15.427-8.12-1.015-1.015-.812-2.639.203-3.451 1.015-1.015 2.639-.812 3.451.203 1.421 1.624 6.902 6.699 15.224 6.699 7.308 0 12.383-3.857 14.21-5.481 1.015-1.015 2.639-.812 3.451.203 1.015 1.015.812 2.639-.203 3.451-2.233 2.03-8.526 6.902-17.661 6.699-1.015 0-2.03 0-3.248-.203z" fill="#263959"/><path d="M168.268 163.614c-10.962.812-23.142 1.218-36.336.812-9.338-.406-18.067-1.015-26.39-1.827-4.465-11.165-10.352-31.058-6.901-55.621 2.03-14.615 6.901-26.389 11.367-35.118 6.293-3.45 16.037-7.713 28.826-9.947 12.788-2.232 23.547-1.42 30.652-.202 4.263 9.337 11.165 26.998 10.962 50.139-.203 24.157-7.511 42.426-12.18 51.764z" fill="#2B2045"/><path opacity=".63" d="M275.449 133.977c-2.436-22.127-17.66-39.381-36.336-42.63-16.848-2.841-30.246 7.106-33.088 9.339-.203-3.451-.203-7.511 0-11.774.609-8.12 2.233-15.225 3.857-20.706 3.857 4.263 14.616 15.022 32.276 19.082 12.992 2.842 23.751.812 29.434-.61 1.827 4.873 3.857 10.963 4.872 18.27 1.624 11.977.406 22.127-1.015 29.029zm-100.279-1.624c-1.421-22.533-17.255-39.99-36.336-42.63-20.097-2.435-34.712 12.789-36.133 14.413-.203-3.045 0-6.698.812-10.758 1.624-8.526 5.481-14.82 8.119-18.473 6.09 3.654 16.646 8.729 30.45 10.759 12.382 1.827 22.735.609 29.434-.61 1.827 4.873 3.857 10.962 4.872 18.27 1.421 11.977.203 22.33-1.218 29.029z" fill="#006DAB"/><path d="M222.874 155.494c-.812-.203-1.624-.406-2.436-.812-3.654-2.03-5.075-6.496-3.045-10.15 2.436-4.465 7.916-12.585 18.472-17.254 8.323-3.654 16.037-3.654 21.112-3.045h.203c4.06.609 6.901 4.263 6.292 8.323a7.64 7.64 0 01-8.322 6.496c-3.045-.406-7.917-.406-12.992 1.827-6.496 2.841-9.947 8.119-11.571 10.758-1.624 2.842-4.669 4.263-7.713 3.857zm-66.38-.203c-2.233-.406-4.263-1.624-5.278-3.654-1.218-2.03-4.669-7.105-11.367-9.338-5.887-2.029-10.962-1.014-13.601-.203-3.857 1.218-8.12-.811-9.338-4.871-1.218-3.857.812-8.12 4.872-9.338 4.263-1.421 13.195-3.248 23.141.203 11.368 4.06 17.255 12.586 19.285 16.036 2.03 3.654.812 8.12-2.639 10.15-1.827.812-3.451 1.218-5.075 1.015z" fill="#6BBDFF"/><path opacity=".35" d="M275.449 140.067c-3.45 1.218-7.104 2.436-10.961 3.451-21.315 5.074-40.193 1.624-52.373-2.233l6.699 20.096c17.863-.406 35.727-.609 53.388-1.015.812-3.248 1.624-6.699 2.029-10.353.812-3.654 1.015-6.901 1.218-9.946zm-102.918-1.218c-4.06 1.217-8.526 2.435-12.992 3.45-20.705 4.669-39.787 4.872-55.215 3.451 1.218 4.466 2.233 8.932 3.451 13.398 8.323 1.015 17.661 1.624 27.608 1.624 11.57 0 22.329-.609 31.87-1.624.812-2.639 1.624-5.278 2.233-8.12a531.87 531.87 0 013.045-12.179z" fill="#84007D"/><path d="M280.727 219.438c.203-.406 5.075-7.917 14.007-7.511 5.887.203 11.164 3.654 14.006 8.932 3.857.812 8.12 1.624 11.977 2.435 8.323 1.827 16.646 3.451 24.968 5.278 5.684-2.842 12.383-1.827 16.849 2.436 3.654 3.451 5.481 9.135 3.857 14.616-1.624 5.278-6.496 9.338-12.383 9.744-5.075.203-9.947-2.436-12.585-6.902-14.21-1.421-28.42-2.842-42.426-4.263-.812 0-10.15-.203-15.631-8.12-5.075-7.511-3.045-15.63-2.639-16.645z" fill="#263959"/><path d="M286.614 273.231c7.714-4.669 15.631-9.947 23.953-15.833 8.12-5.684 15.834-11.368 22.736-17.052 10.353-2.233 20.705 1.827 26.389 9.947 6.293 9.135 3.451 19.487 3.045 20.908-4.263 8.323-10.962 19.285-21.314 30.043-7.105 7.511-14.413 12.992-20.503 17.052-2.639-.203-15.63-1.015-25.577-11.571-12.992-13.6-9.135-31.87-8.729-33.494z" fill="#DFEBF5"/><path d="M297.576 287.847c-5.075-3.045-7.917-4.669-12.18-5.075-6.09-.406-7.511 2.436-14.007 2.03-7.511-.406-10.555-4.466-13.397-2.436-2.233 1.624-2.233 5.278-1.624 7.714 1.218 4.263 5.684 7.308 11.164 7.308-1.218 3.451-2.233 6.902-3.451 10.352a182.538 182.538 0 01-13.194 16.646c-3.248 3.654-5.887 6.293-5.278 9.541.406 2.842 3.248 5.481 6.09 5.887 2.436.203 4.06-1.421 8.12-5.075 2.436-2.233 6.089-5.278 10.555-9.135-.203 1.218-.203 2.842.609 4.466 1.624 3.248 5.684 5.075 10.15 4.669 3.248 4.06 8.12 5.278 11.368 3.654 2.436-1.218 3.451-3.857 3.857-4.669 2.233 1.624 4.06 1.624 4.872 1.624 3.856-.203 7.713-4.263 8.525-9.947 3.045-3.248 6.09-6.293 9.135-9.541-.406-2.842-1.421-6.902-3.857-11.367-4.669-9.135-12.382-13.601-17.457-16.646z" fill="#263959"/><path d="M295.952 222.482c3.654 1.624 7.308 1.218 8.322-.812 1.015-2.029-1.217-5.074-4.871-6.698-3.654-1.624-7.308-1.218-8.323.812-1.015 2.03 1.218 5.075 4.872 6.698z" fill="#DFEBF5"/><path d="M320.108 302.26c.203-3.248.812-7.308 2.03-11.774 1.421-4.872 3.451-8.729 5.075-11.571 2.436 2.03 5.684 5.278 8.526 10.353 2.03 3.857 3.045 7.308 3.654 9.947-2.639 1.218-6.496 2.842-11.571 3.248-3.045.203-5.684 0-7.714-.203zM83.213 198.935c-.203-.203-6.496-6.699-15.224-4.872-5.684 1.218-10.353 5.684-11.977 11.368-3.654 1.421-7.714 3.248-11.368 4.669-7.917 3.248-15.833 6.496-23.547 9.744-6.09-1.624-12.586.609-16.037 5.48-3.045 4.06-3.654 10.15-1.015 15.022 2.639 4.872 8.12 7.917 14.007 7.105 5.075-.609 9.338-4.263 11.165-9.135 13.6-4.06 27.2-8.12 41.005-12.18.811-.203 9.946-2.233 13.803-10.961 3.248-7.917-.203-15.225-.812-16.24z" fill="#263959"/><path d="M68.8 204.822c-3.248 2.233-6.901 2.639-8.322.609-1.218-1.827.203-5.278 3.653-7.511 3.248-2.233 6.902-2.639 8.323-.609 1.218 1.827-.406 5.278-3.654 7.511zm6.902 29.637c-9.135-.203-18.675-.812-28.622-1.827-9.947-.812-19.285-2.03-28.216-3.451C8.713 232.429 1.811 241.158 1 250.902c-.812 10.961 6.699 18.472 7.917 19.69 7.714 5.075 19.081 11.165 33.494 15.428 9.947 2.842 18.878 4.06 26.39 4.669 2.232-1.421 13.194-8.729 16.239-22.736 4.263-18.472-8.12-32.276-9.338-33.494z" fill="#DFEBF5"/><path d="M74.078 249.481c2.842-5.278 4.466-8.12 8.12-10.556 4.872-3.248 6.699-2.233 13.195-5.278 11.367-5.278 14.412-13.6 19.284-12.179 2.436.812 3.654 3.247 4.06 5.074 1.015 3.654-1.421 6.902-2.842 8.729-3.451 4.872-8.526 6.699-10.962 7.308 4.06 4.263 8.12 8.729 12.18 12.992 7.308 4.872 9.744 12.382 7.105 16.848-1.624 2.842-4.872 4.06-6.496 4.466 1.015 3.045 0 6.496-2.233 8.526-2.436 2.233-5.481 2.233-6.09 2.03-.609.812-2.639 2.639-5.887 3.451-3.654.812-6.496-.609-7.308-1.015-.405.609-2.03 2.842-4.871 3.451-3.451.609-7.308-1.421-9.338-5.075l-12.789-3.654c-1.015-2.639-2.233-6.699-2.233-11.774-.203-10.353 4.263-18.269 7.105-23.344z" fill="#263959"/><path d="M90.927 264.908c-4.06 7.917-9.947 12.992-13.398 11.165-3.45-1.624-2.842-9.541 1.218-17.457 4.06-7.917 9.947-12.992 13.398-11.165 3.248 1.624 2.842 9.541-1.218 17.457z" fill="#DFEBF5"/><path d="M38.554 287.035c-.609-.406-1.015-1.015-1.015-1.827l1.42-12.586-12.99-6.902 4.262-19.487 15.022-2.639 2.03-10.556c.203-1.015 1.218-1.624 2.233-1.421 1.015.203 1.624 1.218 1.42 2.233l-2.435 13.195-15.022 2.639-3.248 14.412 12.789 6.902-1.624 15.225c-.203 1.015-1.015 1.624-2.03 1.624-.406-.609-.61-.609-.812-.812z" fill="#263959"/><defs><clipPath id="clip0"><path fill="#fff" transform="translate(66 173)" d="M0 0h229v89H0z"/></clipPath></defs></svg>